<?xml version="1.0" encoding="UTF-8"?>
<svg id="Layer_1" data-name="Layer 1" xmlns="http://www.w3.org/2000/svg" viewBox="0 0 161.26 161.03">
  <defs>
    <style>
      .cls-1 {
        fill: #17683c;
      }
    </style>
  </defs>
  <path class="cls-1" d="M161.21,27c0-14.26-11.51-26.98-26.12-26.98L26.6,0C11.82,0,.02,12.49.02,27.05l-.02,106.41c0,9.32,4.39,17.98,12.23,23.11,4.24,2.78,9.32,4.47,14.55,4.47l107.62-.02c15.17,0,26.87-12.66,26.86-27.48l-.05-106.52ZM82.57,49.3c6.33-5.42,15.44-7.4,23.62-6.77l-13.45,12.82-15.26,14.65-5.42,5.18c.3-9.93,2.98-19.25,10.51-25.88ZM27.89,71.31c1.31-13.05,7.92-24.11,21.17-27.74,8.96-2.37,22.3-1.68,29.93,4.43-4.13,3.83-6.78,8.69-8.38,14.04-2.04-2.93-4.9-4.77-8.31-5.24-2.75-.37-5.44-.33-8.05.51-6.28,2.02-8.73,7.78-9.51,13.91-.92,7.23-1.2,20.68,3.27,26.95l-4.6,4.54-6.85,6.63c-5.46-5.34-7.94-13.63-8.69-21.08-.59-5.69-.54-11.25.03-16.94ZM69.22,116.95c-5.21,1.32-10.51,1.66-16.03.87l15.71-15.11,6.31-6.07,5.24-5.03,5.04-4.83,5.82-5.56c-.08,7.35-.93,14.65-4.07,21.12-3.56,7.38-10.06,12.59-18.02,14.6ZM119.63,114.91c-4.92,2.46-10.23,3.37-15.74,3.38-7.05,0-14.2-1.55-19.93-5.81,4.33-3.93,6.95-8.84,8.58-14.4,1.59,1.97,3.14,3.72,5.4,4.64,3.58,1.46,7.6,1.43,11.25.19,10.72-3.65,9.8-20.92,9.22-29.86-.67-4.95-1.53-9.2-5.13-13.01l6.92-6.65c1.53-1.47,2.91-2.9,4.54-4.32,5.82,4.95,8.69,12.26,9.95,19.68.69,4.06.84,7.99.87,12.13.09,13.29-3.04,27.57-15.93,34.02ZM33.61,131.91l-7.59-7.92L129.05,25.26l7.59,7.92-103.03,98.73Z"/>
</svg>